<?xml version="1.0" encoding="utf-8"?>
<!-- Generator: Adobe Illustrator 22.0.1, SVG Export Plug-In . SVG Version: 6.00 Build 0)  -->
<svg version="1.1" id="Capa_1" xmlns="http://www.w3.org/2000/svg" xmlns:xlink="http://www.w3.org/1999/xlink" x="0px" y="0px"
	 viewBox="0 0 200 200" style="enable-background:new 0 0 200 200;" xml:space="preserve">
<style type="text/css">
	.st0{fill:#FFFFFF;}
</style>
<g>
	<path class="st0" d="M141.9,143.7c0.5,0.3,0.7,0.7,0.7,1c0,0.4-0.5,0.6-1.4,0.6c-0.8,0-1.4,0-1.9-0.1c-2.6-0.2-4.3-0.3-5.1-0.3
		c-1.5,0-2.6,0-3.5,0.1c-0.9,0.1-1.9,0.2-3,0.2c-0.8,0-1.2-0.2-1.2-0.6c0-0.3,0.2-0.5,0.5-0.8c0.9-0.8,1.6-1.4,2.1-1.9
		c0.9-0.8,1.3-1.5,1.2-2.2L121.6,76l-20.5,15.6c2.1,2.2,3.8,4.6,5.1,7.4c1.5,3.1,2.3,6,2.3,8.7c0,3.6-1,6.8-2.9,9.5
		c-2.1,2.9-4.8,4.3-8.1,4.3c-3.2,0-4.5-0.8-6.5-3.7c-1.9-2.6-1.9-6.3-1.9-9.9c0-2.6,0.7-5.2,2-7.8c1-2.1,2.3-3.9,3.8-5.5
		c-4.2-5-7.2-8.7-10-12c-1.4-1.7-4.5-4-4.5-4l-8.6,61c-0.1,0.7,0.4,1.4,1.4,2.2c0.8,0.6,1.7,1.3,2.5,1.9c0.3,0.3,0.5,0.6,0.5,0.8
		c0,0.4-0.3,0.6-1,0.6c-0.3,0-1.4,0-3.1-0.1c-1.7-0.1-3-0.2-3.7-0.2c-1.6,0-2.8,0-3.8,0.1c-1,0.1-2.1,0.2-3.3,0.2
		c-0.8,0-1.2-0.2-1.2-0.6c0-0.3,0.2-0.6,0.7-1.1c0.7-0.6,1.4-1.1,2.2-1.7c0.9-0.8,1.4-1.5,1.5-2.2l9.6-67.9c0.1-0.7-0.4-1.4-1.5-2.3
		c-0.8-0.6-1.6-1.2-2.5-1.9c-0.2-0.2-0.3-0.5-0.3-0.7c0-0.5,0.3-0.7,1-0.7c0.3,0,1.2,0.1,2.7,0.2c1.6,0.1,3,0.2,4.4,0.2
		c1.5,0,2.8,0,3.7-0.1c0.9-0.1,2-0.1,3.3-0.3c0.9,0,1.3,0.2,1.3,0.6c0,0.2-0.1,0.5-0.4,0.8c-0.9,0.8-1.7,1.4-2.2,1.8
		c-1,0.8-1.5,1.5-1.5,2.1c0,0.1,0,0.3,0.1,0.5c2.1,0.8,5.1,4.2,5.1,4.2c2.4,2.8,4.6,5.4,7.8,8.8c0.7,0.7,3.2,3.6,3.3,3.6L119.2,73
		c0.6-0.6,0.9-1.2,0.9-1.7c0-0.4-0.2-0.8-0.6-1.3c-0.2-0.2-0.5-0.5-1.1-1c-0.5-0.4-1.1-0.8-1.6-1.3c-0.3-0.3-0.5-0.6-0.5-0.8
		c0-0.4,0.4-0.6,1.2-0.6c0.8,0,1.4,0,1.9,0.1c2.6,0.2,4.3,0.3,5.1,0.3c1.1,0,2.4-0.1,3.9-0.2c1.5-0.1,2.4-0.2,2.7-0.2
		c1.1,0,1.6,0.2,1.6,0.7c0,0.3-0.2,0.5-0.5,0.7c-0.8,0.5-1.4,0.9-1.8,1.2c-1.5,1.1-2.2,2-2,2.8l9.1,67.9c0.1,0.6,0.7,1.4,1.7,2.2
		C140.2,142.5,141,143.1,141.9,143.7z M102.5,108.6c0-2-1.3-5.3-1.3-5.3s-1.4-4.1-3.2-5.5c-1.5,1.4-2.7,2.7-3.5,4.2
		c-1.1,1.9-1.7,3.9-1.7,5.9c0,2.5-0.1,4.2,0.9,6c1.2,2,1.9,3.4,3,3.4c1.8,0,3.3-0.9,4.3-2.8C102.1,112.8,102.5,110.9,102.5,108.6z"
		/>
</g>
<path class="st0" d="M121,42.9c0,5.9-7.6,17.3-7.6,17.3S99.8,48.8,99.8,42.9s4.8-10.6,10.6-10.6C116.3,32.3,121,37.1,121,42.9z"/>
<path class="st0" d="M105.4,42.9c0,5.9-16,17.3-16,17.3s-5.2-11.5-5.2-17.3s4.8-10.6,10.6-10.6C100.7,32.3,105.4,37.1,105.4,42.9z"
	/>
</svg>
