<?xml version="1.0" encoding="utf-8"?>
<!-- Generator: Adobe Illustrator 22.0.1, SVG Export Plug-In . SVG Version: 6.00 Build 0)  -->
<svg version="1.1" id="Capa_1" xmlns="http://www.w3.org/2000/svg" xmlns:xlink="http://www.w3.org/1999/xlink" x="0px" y="0px"
	 viewBox="0 0 200 200" style="enable-background:new 0 0 200 200;" xml:space="preserve">
<style type="text/css">
	.st0{fill:#020203;}
	.st1{font-family:'Harrington';}
	.st2{font-size:62.1756px;}
</style>
<path class="st0" d="M35.5,66.7c0,3.2-4.1,9.3-4.1,9.3s-7.3-6.2-7.3-9.3c0-3.2,2.6-5.7,5.7-5.7S35.5,63.5,35.5,66.7z"/>
<path class="st0" d="M29.8,66.7c0,3.2-8.6,9.3-8.6,9.3s-2.8-6.2-2.8-9.3c0-3.2,2.6-5.7,5.7-5.7S29.8,63.5,29.8,66.7z"/>
<text transform="matrix(1 0 0 1 50.85 121.6998)" class="st0 st1 st2">atcha</text>
<path class="st0" d="M53.5,123.6c-0.6-0.4-1.1-0.7-1.6-1.1c-0.7-0.5-1.1-1-1.1-1.4l-5.7-42.4c-0.1-0.5,0.4-1.1,1.2-1.7
	c0.2-0.2,0.6-0.4,1.1-0.7c0.2-0.1,0.3-0.3,0.3-0.4c0-0.3-0.3-0.4-1-0.4c-0.2,0-0.7,0.1-1.7,0.1s-1.7,0.1-2.4,0.1
	c-0.5,0-1.6-0.1-3.2-0.2c-0.3,0-0.7-0.1-1.2-0.1c-0.5,0-0.7,0.1-0.7,0.4c0,0.1,0.1,0.3,0.3,0.5c0.4,0.3,0.7,0.6,1,0.8
	c0.3,0.2,0.6,0.4,0.7,0.6c0.2,0.3,0.4,0.6,0.4,0.8c0,0.4-0.2,0.7-0.6,1.1l-13.2,9.7c-0.1,0-1.6-1.8-2.1-2.2c-2-2.1-3.4-3.7-4.9-5.5
	c0,0-1.9-2.1-3.2-2.6c-0.1-0.1-0.1-0.2-0.1-0.3c0-0.4,0.3-0.9,0.9-1.3c0.3-0.2,0.7-0.6,1.4-1.1c0.2-0.2,0.2-0.3,0.2-0.5
	c0-0.2-0.2-0.4-0.8-0.4c-0.7,0.1-1.4,0.1-2.1,0.2c-0.6,0.1-1.4,0.1-2.3,0.1c-0.9,0-1.8-0.1-2.7-0.1c-1-0.1-1.6-0.1-1.7-0.1
	c-0.4,0-0.6,0.1-0.6,0.4c0,0.1,0.1,0.3,0.2,0.4c0.5,0.4,1,0.8,1.6,1.2c0.6,0.6,0.9,1,0.9,1.4l-6,42.4c-0.1,0.4-0.4,0.9-0.9,1.4
	c-0.5,0.4-0.9,0.7-1.4,1.1c-0.3,0.2-0.4,0.5-0.4,0.7c0,0.2,0.2,0.4,0.7,0.4c0.7-0.1,1.4-0.1,2.1-0.1s1.4-0.1,2.4-0.1
	c0.5,0,1.2,0.1,2.3,0.1c1.1,0.1,1.7,0.1,1.9,0.1c0.4,0,0.6-0.1,0.6-0.4c0-0.2-0.1-0.3-0.3-0.5c-0.6-0.4-1.1-0.7-1.6-1.2
	c-0.6-0.5-0.9-0.9-0.9-1.4L15,83.2c0,0,1.9,1.4,2.8,2.5c1.7,2.1,3.6,4.4,6.2,7.5c-0.9,1-1.7,2.1-2.4,3.4c-0.8,1.7-1.2,3.3-1.2,4.9
	c0,2.2,0,4.5,1.2,6.2c1.3,1.7,2.1,2.3,4.1,2.3c2.1,0,3.7-0.9,5.1-2.7c1.2-1.7,1.8-3.7,1.8-5.9c0-1.7-0.5-3.5-1.4-5.4
	c-0.9-1.7-1.9-3.2-3.2-4.6l12.9-10l5.4,39.8c0.1,0.4-0.2,0.9-0.7,1.4c-0.3,0.2-0.7,0.6-1.3,1.2c-0.2,0.2-0.3,0.4-0.3,0.5
	c0,0.2,0.2,0.4,0.7,0.4c0.7-0.1,1.3-0.1,1.9-0.1c0.6,0,1.3-0.1,2.2-0.1c0.5,0,1.6,0.1,3.2,0.2c0.3,0,0.7,0.1,1.2,0.1
	c0.6,0,0.9-0.1,0.9-0.4C54,123.9,53.9,123.7,53.5,123.6z M28.3,96.5c0.4,0.5,0.7,1,1.1,1.6c0.4,0.5,0.7,1.1,1,1.7
	c0.3,0.8,0.5,1.6,0.6,2.6c0,0.7-0.1,1.4-0.3,2c-0.4,1.1-1.1,1.7-1.9,1.7c-0.9-0.1-1.5-0.7-1.9-1.9c-0.1-0.2-0.1-0.3-0.2-0.2
	c-0.1,0-0.1,0.1-0.1,0.1c-0.1,0.3-0.1,0.3-0.2,0.6c-0.4,0.7-0.8,1.2-1.4,1.4c-1.2,0.4-2.4-0.9-2.6-2.9c-0.1-0.5,0-1.1,0.1-1.6
	c0.1-0.9,0.4-1.6,0.7-2.2c0.4-0.6,0.7-1.2,1.1-1.7c0.5-0.7,1-1.3,1.4-2.1c0.4-0.6,0.2-0.3,0.6-0.9c0,0,0.3-0.3,0.4-0.3
	c0.1,0.1,0.4,0.2,0.4,0.3C27.5,95.5,27.8,95.8,28.3,96.5z"/>
</svg>
